<svg xmlns="http://www.w3.org/2000/svg" viewBox="0 0 283.63 48"><title>semicolon-official-logo-lock</title><g id="Layer_2" data-name="Layer 2"><g id="Brand_Values" data-name="Brand Values"><path d="M48.33,23.64v-.1c0-.15,0-.3,0-.45s0-.11,0-.17,0-.26,0-.39,0-.42-.05-.63,0-.28,0-.42l0-.2c0-.13,0-.25,0-.38s0-.07,0-.11,0-.29-.07-.43V20.3l-.09-.49v-.06c0-.13,0-.26-.07-.39s0,0,0-.06,0-.08,0-.12-.07-.3-.1-.45v0c0-.17-.07-.33-.11-.49v0l-.09-.36c0-.06,0-.12,0-.17l-.12-.41,0-.11c0-.15-.09-.3-.14-.45s0,0,0,0c-.06-.17-.12-.33-.17-.5v0l-.18-.48c-.06-.16-.12-.33-.19-.49s-.11-.27-.17-.41a.84.84,0,0,0-.06-.14c0-.13-.11-.27-.17-.4v0c-.15-.32-.3-.64-.46-.95l-.24-.47-.21-.39c-.1-.17-.2-.35-.31-.52s-.15-.26-.23-.39l-.06-.09c-.08-.14-.17-.27-.26-.41a.56.56,0,0,0-.05-.08l-.24-.35-.25-.36h0L43.75,10c-.15-.21-.3-.42-.46-.62l-.11-.14c-.3-.38-.61-.75-.93-1.12L42.12,8a23,23,0,0,0-1.71-1.71l-.21-.19c-.29-.27-.59-.52-.9-.77l-.21-.16c-.23-.18-.46-.36-.7-.53l-.21-.15c-.24-.18-.49-.35-.74-.51l-.38-.25-.38-.23-.16-.1c-.58-.34-1.17-.66-1.78-1l-.33-.16h0l-.21-.1L33.84,2l-.17-.08L33,1.66l-.21-.08h0l-.4-.15h0l-.41-.14h0l-.2-.07L31.07,1,30.78.92,30.3.78,29.92.69C29.48.58,29,.49,28.6.41L28.25.34h-.06l-.36,0-.28,0L27,.17l-.31,0-.43,0-.21,0h0l-.62,0H22.92l-.61,0h0l-.21,0-.43,0-.32,0-.52.07-.29,0-.42.06-.35.07c-.44.08-.88.17-1.31.28L18,.78l-.49.14L17.27,1l-.65.2-.19.07h0L16,1.41h0l-.4.15h0l-.21.08-.68.28L14.49,2l-.33.14a1.24,1.24,0,0,0-.2.1h0l-.33.16c-.61.3-1.2.62-1.78,1l-.16.1-.38.23L10.9,4q-.37.24-.75.51l-.21.15c-.23.17-.47.35-.69.53L9,5.32c-.3.25-.6.5-.9.77l-.21.19A23,23,0,0,0,6.21,8l-.12.14c-.33.37-.64.74-.93,1.12L5,9.39c-.16.2-.31.41-.46.62l-.12.17h0l-.25.36c-.08.11-.16.23-.23.35L3.91,11l-.26.41a.41.41,0,0,0,0,.09l-.24.39-.3.52c-.07.13-.15.26-.21.39l-.25.47c-.16.31-.31.63-.45.95l0,0c0,.13-.11.27-.17.4l-.06.14-.17.41-.19.49c-.06.16-.12.32-.17.48v0c-.06.17-.12.33-.17.5a.08.08,0,0,0,0,0L1,17.15l0,.11-.12.41s0,.11,0,.17-.07.24-.1.36v0l-.12.49v0c0,.15-.07.3-.1.45l0,.12s0,0,0,.06,0,.26-.08.39v.06c0,.16,0,.32-.08.49a.13.13,0,0,0,0,.06c0,.14,0,.28-.06.43a.43.43,0,0,0,0,.11c0,.13,0,.25,0,.38a1.5,1.5,0,0,0,0,.2c0,.14,0,.28,0,.42s0,.42,0,.63,0,.26,0,.39a1,1,0,0,1,0,.17c0,.15,0,.3,0,.45v.1c0,.17,0,.35,0,.53s0,.41,0,.62v.31c0,.13,0,.26,0,.4s0,.2,0,.3,0,.15,0,.23,0,.13,0,.2a1.49,1.49,0,0,0,0,.21l0,.32c0,.07,0,.14,0,.2l0,.28c0,.11,0,.21,0,.31s0,.33.07.49,0,.21,0,.31l.06.31a.77.77,0,0,1,0,.15c0,.16.07.31.1.47s.14.62.22.93l.24.86a23.89,23.89,0,0,0,1.16,3.09,2.14,2.14,0,0,0,.1.22c.12.25.24.51.37.76l.28.54q.38.68.78,1.32l.16.26a24.78,24.78,0,0,0,3.7,4.46l.23.2v0l.13.11.37.34a12.08,12.08,0,0,0,19.9-9.21V25.9h-4a4,4,0,0,0-4,4v3.16A4.08,4.08,0,0,1,16.2,37.2a4,4,0,0,1-2.61-.89h0a2.25,2.25,0,0,1-.24-.21L13.26,36a16,16,0,0,1-5.2-11.85h0A16.11,16.11,0,1,1,30.65,38.92a4,4,0,0,0-2.46,3.71V48a24,24,0,0,0,5.55-1.64l.1,0,.4-.18.4-.19.41-.2.36-.19.29-.15.22-.12,0,0,.43-.24c.28-.16.55-.33.83-.51l.22-.14c.4-.27.8-.55,1.18-.84l.24-.17.68-.55c.15-.12.3-.24.44-.37l.22-.19.43-.39.21-.2.21-.2.41-.41c.2-.21.4-.42.59-.64l.2-.21.19-.22.19-.22.18-.22c.19-.22.37-.45.54-.68s.24-.31.35-.47.12-.15.17-.23l.34-.48.16-.24c.1-.17.21-.33.31-.49l.15-.25c.11-.17.2-.34.3-.5l.14-.25.28-.52.12-.22.15-.3.18-.37.18-.39c0-.1.09-.2.14-.31s.08-.18.11-.27l.12-.27.15-.39c0-.12.1-.25.14-.37s.11-.29.16-.44.09-.26.13-.4.1-.28.14-.42l.12-.42c0-.12.07-.23.1-.34s0-.12,0-.18a2.68,2.68,0,0,1,.07-.27c0-.19.09-.37.13-.56s0-.21.07-.31.07-.34.1-.5.05-.3.08-.45l.06-.35v0c0-.1,0-.19.05-.28v0c0-.1,0-.2,0-.3s0-.23,0-.35,0-.28,0-.43l0-.43s0,0,0-.06,0-.24,0-.36,0-.13,0-.19,0-.22,0-.33,0-.31,0-.46v-1Z" fill="#ff2e2e"/><path d="M23.56,13.17h0a4.63,4.63,0,0,1,4.63,4.63v4.63a0,0,0,0,1,0,0H23.56a4.63,4.63,0,0,1-4.63-4.63v0A4.63,4.63,0,0,1,23.56,13.17Z" fill="#ff2e2e"/><path d="M72.16,24.49l-3.07-.42a4.13,4.13,0,0,1-2.27-.86,2.26,2.26,0,0,1-.6-1.69,2,2,0,0,1,.83-1.67,4.9,4.9,0,0,1,2.82-.62,8,8,0,0,1,3.36.75,10.33,10.33,0,0,1,3,2.06l4.43-4.54c-.7-.65-1.4-1.25-2.11-1.79a11.62,11.62,0,0,0-2.35-1.36,13.42,13.42,0,0,0-2.92-.83,22.19,22.19,0,0,0-3.78-.29,14,14,0,0,0-4.4.65,10.14,10.14,0,0,0-3.34,1.83,8,8,0,0,0-2.13,2.81,8.52,8.52,0,0,0-.76,3.63q0,7.29,9.23,8.44L71,31c1.84.24,2.76,1,2.76,2.29a2.3,2.3,0,0,1-.89,1.9,5.26,5.26,0,0,1-3.17.71,8.52,8.52,0,0,1-4-.94,11.81,11.81,0,0,1-3.23-2.56L57.93,37a14.34,14.34,0,0,0,11.52,4.9,16.08,16.08,0,0,0,4.82-.68,11.05,11.05,0,0,0,3.7-1.9,8.64,8.64,0,0,0,2.38-2.89,8.15,8.15,0,0,0,.83-3.65Q81.18,25.7,72.16,24.49Z" fill="#ff2e2e"/><path d="M108.71,29.5V27.2a19.64,19.64,0,0,0-.71-5.29,12.26,12.26,0,0,0-2.24-4.46,10.89,10.89,0,0,0-4-3.07A13.38,13.38,0,0,0,96,13.23a13.91,13.91,0,0,0-5.48,1,11,11,0,0,0-4,2.89A12.49,12.49,0,0,0,84,21.65a19.2,19.2,0,0,0-.84,5.86A19.38,19.38,0,0,0,84,33.46,12.25,12.25,0,0,0,86.58,38a11.47,11.47,0,0,0,4.14,2.86,14.45,14.45,0,0,0,5.58,1,17.67,17.67,0,0,0,6.7-1.2,12.2,12.2,0,0,0,4.77-3.35l-3.86-4.81a14.82,14.82,0,0,1-2.81,2.3,7.19,7.19,0,0,1-3.91,1,5.94,5.94,0,0,1-4.59-1.58,6,6,0,0,1-1.46-4.26V29.5Zm-17.57-5a6.08,6.08,0,0,1,1.33-4.09,4.58,4.58,0,0,1,3.68-1.54,4,4,0,0,1,3.46,1.54,6.69,6.69,0,0,1,1.12,4V25H91.14Z" fill="#ff2e2e"/><path d="M160.74,16.79V34.18A9,9,0,0,1,153,43.1a8,8,0,0,1-1.3.1,8.17,8.17,0,0,1-1.31-.1,9,9,0,0,1-7.71-8.92V24.7q0-5.2-3.75-5.21a5.32,5.32,0,0,0-3.13,1,3.44,3.44,0,0,0-1.41,3V41.22H126.7V24.7c0-3.47-1.26-5.21-3.76-5.21a5.7,5.7,0,0,0-1.64.23,4.16,4.16,0,0,0-1.46.76,4,4,0,0,0-1,1.27,3.79,3.79,0,0,0-.39,1.75V41.22h-7.72v-23a4.36,4.36,0,0,1,4.36-4.36h3.36V18.5h.31a8.42,8.42,0,0,1,2.5-3.73,7.13,7.13,0,0,1,4.85-1.54,8.08,8.08,0,0,1,4.8,1.41,7.84,7.84,0,0,1,2.86,4.12h.16a7.37,7.37,0,0,1,3-3.91,9.73,9.73,0,0,1,2.45-1.17,9.21,9.21,0,0,1,2.92-.45A7.13,7.13,0,0,1,148.3,16a12.5,12.5,0,0,1,2.1,7.22c0,.27,0,.54,0,.81V34.18a1.32,1.32,0,0,0,1.37,1.31A1.36,1.36,0,0,0,153,34.11v-13a4.36,4.36,0,0,1,4.36-4.36Z" fill="#ff2e2e"/><path d="M181.23,31.63a8.08,8.08,0,0,1-1.7,2.9,4.41,4.41,0,0,1-3.41,1.22,4.23,4.23,0,0,1-3.55-1.53,6.52,6.52,0,0,1-1.19-4.13V25a6.52,6.52,0,0,1,1.19-4.13,4.23,4.23,0,0,1,3.55-1.53,4.43,4.43,0,0,1,3.18,1.09,5.27,5.27,0,0,1,1.51,2.66l6.26-2.71a10.35,10.35,0,0,0-4-5.26,12.21,12.21,0,0,0-7-1.88,14.19,14.19,0,0,0-5.47,1,10.54,10.54,0,0,0-4,2.87,12.74,12.74,0,0,0-2.45,4.51,19.36,19.36,0,0,0-.83,5.91,19.72,19.72,0,0,0,.83,5.95A12.49,12.49,0,0,0,166.63,38a10.85,10.85,0,0,0,4,2.86,13.82,13.82,0,0,0,5.47,1A12.43,12.43,0,0,0,183,40a10.75,10.75,0,0,0,4.19-5.77Z" fill="#ff2e2e"/><path d="M214,21.57a13.1,13.1,0,0,0-2.53-4.51,10.93,10.93,0,0,0-4-2.84,15.2,15.2,0,0,0-10.79,0,10.89,10.89,0,0,0-4,2.84,12.78,12.78,0,0,0-2.53,4.51,18.71,18.71,0,0,0-.89,5.94,18.78,18.78,0,0,0,.89,5.95A13,13,0,0,0,192.62,38a10.74,10.74,0,0,0,4,2.87,15.2,15.2,0,0,0,10.79,0,10.77,10.77,0,0,0,4-2.87A13.29,13.29,0,0,0,214,33.46a18.78,18.78,0,0,0,.88-5.95A18.72,18.72,0,0,0,214,21.57Zm-7.15,8.76a5.85,5.85,0,0,1-1.24,4,5.17,5.17,0,0,1-7.1,0,5.85,5.85,0,0,1-1.25-4V24.75a5.85,5.85,0,0,1,1.25-4,5.17,5.17,0,0,1,7.1,0,5.85,5.85,0,0,1,1.24,4Z" fill="#ff2e2e"/><path d="M225.34,33.21V4.8h-7.71V33.72a7.78,7.78,0,0,0,1.85,5.58q1.85,1.92,5.81,1.92h5.34v-6h-3.26A2,2,0,0,1,225.34,33.21Z" fill="#ff2e2e"/><path d="M256.57,21.57a12.92,12.92,0,0,0-2.52-4.51,11,11,0,0,0-4-2.84,15.2,15.2,0,0,0-10.79,0,10.89,10.89,0,0,0-4,2.84,12.78,12.78,0,0,0-2.53,4.51,18.72,18.72,0,0,0-.88,5.94,18.78,18.78,0,0,0,.88,5.95A13,13,0,0,0,235.23,38a10.74,10.74,0,0,0,4,2.87,15.2,15.2,0,0,0,10.79,0,10.86,10.86,0,0,0,4-2.87,13.1,13.1,0,0,0,2.52-4.53,18.78,18.78,0,0,0,.89-5.95A18.71,18.71,0,0,0,256.57,21.57Zm-7.14,8.76a5.81,5.81,0,0,1-1.25,4,5.16,5.16,0,0,1-7.09,0,5.85,5.85,0,0,1-1.25-4V24.75a5.85,5.85,0,0,1,1.25-4,5.16,5.16,0,0,1,7.09,0,5.81,5.81,0,0,1,1.25,4Z" fill="#ff2e2e"/><path d="M281.47,16a7.57,7.57,0,0,0-6.39-2.81A7.47,7.47,0,0,0,270,14.8a8.36,8.36,0,0,0-2.56,3.7h-.31V13.86h-3.35a4.36,4.36,0,0,0-4.36,4.36v23h7.71V23.5a3.57,3.57,0,0,1,.42-1.75,4,4,0,0,1,1.12-1.27,4.68,4.68,0,0,1,1.59-.76,6.93,6.93,0,0,1,1.82-.23,3.25,3.25,0,0,1,3,1.28,7.24,7.24,0,0,1,.84,3.93V41.22h7.71V24.07Q283.63,18.87,281.47,16Z" fill="#ff2e2e"/><path d="M160.74,13.53h-4.37A4.37,4.37,0,0,1,152,9.16h0a4.36,4.36,0,0,1,4.36-4.36h0a4.37,4.37,0,0,1,4.37,4.36Z" fill="#ff2e2e"/></g></g></svg>